# xmcd
#
# Track frame offsets:
# 150
# 16900
# 29229
# 43466
# 54012
# 67221
# 79359
# 93207
# 108590
# 120050
# 133423
# 148999
#
# Disc length: 2169 seconds
#
#
# Revision: 0
# Processed by: cddbd v1.5.2PL0 Copyright (c) Steve Scherf et al.
# Submitted via: FreeRIP 2.945 
#
DISCID=b108770c
DTITLE=Alex and Adriano - Me Dê Uma Chance
DYEAR=1900
DGENRE=Sertanejo
TTITLE0=Me Dê Uma Chance
TTITLE1=Uma Pinga Não Faz Mal
TTITLE2=Tantos Segredos
TTITLE3=Vai e Vem
TTITLE4=Loucuras de Amor
TTITLE5=Destino a Barretos
TTITLE6=Estou Sozinho
TTITLE7=Mais Uma Vez
TTITLE8=Sou Cowboy
TTITLE9=Mulher Modelo
TTITLE10=Saudade
TTITLE11=Deixei a Minha Terra
EXTD=
EXTT0=
EXTT1=
EXTT2=
EXTT3=
EXTT4=
EXTT5=
EXTT6=
EXTT7=
EXTT8=
EXTT9=
EXTT10=
EXTT11=
PLAYORDER=
